<svg width="140" height="30" viewBox="0 0 140 30" fill="none" xmlns="http://www.w3.org/2000/svg">
<g clip-path="url(#clip0_57_133)">
<path d="M36.717 13.5984C36.6152 13.5984 36.5273 13.5615 36.4532 13.4876C36.3792 13.4138 36.3421 13.3261 36.3421 13.2245V4.27989C36.3421 4.17835 36.3792 4.09066 36.4532 4.01681C36.5273 3.94296 36.6152 3.90604 36.717 3.90604H40.924C41.7663 3.90604 42.4975 4.03066 43.1177 4.27989C43.7471 4.51989 44.2331 4.89373 44.5755 5.40142C44.9273 5.89989 45.1031 6.53219 45.1031 7.29835C45.1031 8.0645 44.9273 8.69219 44.5755 9.18145C44.2331 9.66142 43.7471 10.0168 43.1177 10.2476C42.4975 10.4691 41.7663 10.5799 40.924 10.5799H39.9521V13.2245C39.9521 13.3261 39.915 13.4138 39.841 13.4876C39.7669 13.5615 39.679 13.5984 39.5772 13.5984H36.717ZM39.8826 8.01835H40.8545C41.0026 8.01835 41.1461 7.96296 41.285 7.85219C41.4238 7.73219 41.4932 7.53835 41.4932 7.27065C41.4932 7.09527 41.4469 6.91989 41.3544 6.7445C41.2711 6.56912 41.1045 6.48145 40.8545 6.48145H39.8826V8.01835ZM46.5066 13.5984C46.4048 13.5984 46.3169 13.5615 46.2428 13.4876C46.1688 13.4138 46.1317 13.3261 46.1317 13.2245V4.27989C46.1317 4.17835 46.1688 4.09066 46.2428 4.01681C46.3169 3.94296 46.4048 3.90604 46.5066 3.90604H50.6164C51.9493 3.90604 52.9906 4.20604 53.7403 4.80604C54.4901 5.40604 54.865 6.22758 54.865 7.27065C54.865 7.88912 54.7215 8.42912 54.4345 8.89068C54.1569 9.34299 53.8005 9.70758 53.3655 9.9845L55.0732 13.1415C55.101 13.1968 55.1149 13.2476 55.1149 13.2938C55.1149 13.3768 55.0825 13.4507 55.0177 13.5153C54.9621 13.5707 54.8927 13.5984 54.8094 13.5984H51.9631C51.778 13.5984 51.6392 13.5522 51.5466 13.4599C51.454 13.3676 51.3939 13.2891 51.3661 13.2245L50.1721 10.5799H49.6028V13.2245C49.6028 13.3261 49.5658 13.4138 49.4917 13.4876C49.4177 13.5615 49.3298 13.5984 49.2279 13.5984H46.5066ZM49.6028 7.94912H50.6164C50.8293 7.94912 50.9866 7.87989 51.0884 7.74142C51.1995 7.59373 51.255 7.42758 51.255 7.24296C51.255 7.05835 51.2041 6.88758 51.1023 6.73066C51.0098 6.56453 50.8478 6.48145 50.6164 6.48145H49.6028V7.94912ZM56.5264 13.5984C56.4246 13.5984 56.3367 13.5615 56.2626 13.4876C56.1886 13.4138 56.1516 13.3261 56.1516 13.2245V4.27989C56.1516 4.17835 56.1886 4.09066 56.2626 4.01681C56.3367 3.94296 56.4246 3.90604 56.5264 3.90604H59.3588C59.4607 3.90604 59.5486 3.94296 59.6226 4.01681C59.6967 4.09066 59.7337 4.17835 59.7337 4.27989V13.2245C59.7337 13.3261 59.6967 13.4138 59.6226 13.4876C59.5486 13.5615 59.4607 13.5984 59.3588 13.5984H56.5264ZM65.6646 13.7368C64.776 13.7368 63.9893 13.6076 63.3043 13.3491C62.6193 13.0907 62.0732 12.6845 61.666 12.1307C61.2679 11.5768 61.0504 10.8614 61.0134 9.9845C61.0041 9.60604 60.9995 9.19989 60.9995 8.76607C60.9995 8.33219 61.0041 7.91681 61.0134 7.51989C61.0504 6.66145 61.2726 5.9553 61.6798 5.40142C62.0964 4.84758 62.6471 4.43681 63.3321 4.16912C64.0263 3.90142 64.8038 3.76758 65.6646 3.76758C66.257 3.76758 66.8263 3.83681 67.3724 3.97527C67.9278 4.1045 68.4276 4.31219 68.8719 4.59835C69.3162 4.8845 69.6679 5.25373 69.9271 5.70604C70.1955 6.14912 70.3344 6.6845 70.3436 7.31219C70.3436 7.39527 70.3112 7.46912 70.2464 7.53373C70.1909 7.58912 70.1215 7.61681 70.0382 7.61681H67.2058C67.0577 7.61681 66.9466 7.58912 66.8726 7.53373C66.8078 7.46912 66.7476 7.36296 66.6921 7.21527C66.5902 6.91989 66.4514 6.72142 66.2755 6.61989C66.0997 6.51835 65.8914 6.46758 65.6507 6.46758C65.3453 6.46758 65.1 6.55066 64.9149 6.71681C64.739 6.87373 64.6418 7.1645 64.6233 7.58912C64.5955 8.34604 64.5955 9.12142 64.6233 9.9153C64.6418 10.3399 64.739 10.6353 64.9149 10.8015C65.1 10.9584 65.3453 11.0368 65.6507 11.0368C65.8914 11.0368 66.0997 10.9815 66.2755 10.8707C66.4607 10.7599 66.5995 10.5661 66.6921 10.2891C66.7383 10.1322 66.7985 10.026 66.8726 9.97066C66.9466 9.91527 67.0577 9.88761 67.2058 9.88761H70.0382C70.1215 9.88761 70.1909 9.91992 70.2464 9.9845C70.3112 10.0399 70.3436 10.1091 70.3436 10.1922C70.3344 10.8199 70.1955 11.3599 69.9271 11.8122C69.6679 12.2553 69.3162 12.6199 68.8719 12.9061C68.4276 13.1922 67.9278 13.4045 67.3724 13.543C66.8263 13.6722 66.257 13.7368 65.6646 13.7368ZM71.8209 13.5984C71.7191 13.5984 71.6311 13.5615 71.5571 13.4876C71.483 13.4138 71.446 13.3261 71.446 13.2245V4.27989C71.446 4.17835 71.483 4.09066 71.5571 4.01681C71.6311 3.94296 71.7191 3.90604 71.8209 3.90604H78.9435C79.0453 3.90604 79.1333 3.94296 79.2073 4.01681C79.2814 4.09066 79.3184 4.17835 79.3184 4.27989V6.23222C79.3184 6.33373 79.2814 6.42142 79.2073 6.49527C79.1333 6.56915 79.0453 6.60607 78.9435 6.60607H74.7782V7.47835H78.6381C78.7399 7.47835 78.8278 7.51527 78.9019 7.58912C78.9759 7.66296 79.0129 7.75066 79.0129 7.85219V9.65219C79.0129 9.75373 78.9759 9.84142 78.9019 9.9153C78.8278 9.98912 78.7399 10.026 78.6381 10.026H74.7782V10.8983H79.0546C79.1564 10.8983 79.2443 10.9353 79.3184 11.0091C79.3924 11.083 79.4295 11.1707 79.4295 11.2722V13.2245C79.4295 13.3261 79.3924 13.4138 79.3184 13.4876C79.2443 13.5615 79.1564 13.5984 79.0546 13.5984H71.8209ZM84.761 13.7368C83.7336 13.7368 82.8867 13.5984 82.2202 13.3215C81.5538 13.0445 81.0539 12.6799 80.7207 12.2276C80.3875 11.7753 80.2116 11.2953 80.1931 10.7876C80.1931 10.7045 80.2209 10.6353 80.2764 10.5799C80.3412 10.5153 80.4153 10.483 80.4986 10.483H83.1366C83.2847 10.483 83.3957 10.506 83.4698 10.5522C83.5531 10.5891 83.641 10.6445 83.7336 10.7184C83.8262 10.783 83.9187 10.843 84.0113 10.8983C84.1131 10.9445 84.2242 10.9814 84.3445 11.0091C84.4741 11.0276 84.6129 11.0368 84.761 11.0368C85.0757 11.0368 85.3257 11.0045 85.5108 10.9399C85.7052 10.8661 85.8024 10.7691 85.8024 10.6491C85.8024 10.5383 85.7468 10.446 85.6357 10.3722C85.5339 10.2983 85.3534 10.2337 85.0943 10.1783C84.8351 10.1137 84.4741 10.0537 84.0113 9.99835C83.28 9.89681 82.646 9.72604 82.1091 9.48604C81.5723 9.24604 81.1557 8.91835 80.8595 8.50296C80.5726 8.07835 80.4291 7.56142 80.4291 6.95219C80.4291 6.3245 80.605 5.77065 80.9567 5.29066C81.3177 4.81065 81.8129 4.43681 82.4424 4.16912C83.081 3.90142 83.8215 3.76758 84.6638 3.76758C85.3581 3.76758 85.9736 3.85989 86.5105 4.0445C87.0473 4.21989 87.5009 4.45527 87.8711 4.75066C88.2414 5.03681 88.5237 5.34604 88.7181 5.67835C88.9124 6.01065 89.0143 6.32912 89.0235 6.63373C89.0235 6.71681 88.9911 6.79065 88.9263 6.85527C88.8708 6.91065 88.806 6.93835 88.7319 6.93835H85.9551C85.8255 6.93835 85.7191 6.91989 85.6357 6.88296C85.5617 6.84604 85.483 6.79066 85.3997 6.71681C85.3534 6.67066 85.2655 6.61989 85.1359 6.5645C85.0156 6.49989 84.8582 6.46758 84.6638 6.46758C84.4324 6.46758 84.2612 6.5045 84.1501 6.57835C84.0483 6.64296 83.9974 6.7353 83.9974 6.85527C83.9974 6.93835 84.0391 7.01681 84.1224 7.09065C84.2057 7.1645 84.3584 7.22912 84.5805 7.2845C84.8027 7.33989 85.122 7.39527 85.5386 7.45066C86.4642 7.56142 87.2047 7.74142 87.76 7.99065C88.3247 8.23066 88.7319 8.55373 88.9819 8.95989C89.241 9.36604 89.3706 9.86912 89.3706 10.4691C89.3706 11.143 89.167 11.7245 88.7597 12.2138C88.3617 12.703 87.8156 13.0815 87.1214 13.3491C86.4272 13.6076 85.6404 13.7368 84.761 13.7368ZM94.7893 13.7368C93.9007 13.7368 93.1139 13.6076 92.4289 13.3491C91.744 13.0907 91.1979 12.6845 90.7906 12.1307C90.3926 11.5768 90.175 10.8614 90.138 9.9845C90.1288 9.60604 90.1241 9.19989 90.1241 8.76607C90.1241 8.33219 90.1288 7.91681 90.138 7.51989C90.175 6.66145 90.3972 5.9553 90.8045 5.40142C91.221 4.84758 91.7717 4.43681 92.4567 4.16912C93.1509 3.90142 93.9284 3.76758 94.7893 3.76758C95.3817 3.76758 95.9509 3.83681 96.497 3.97527C97.0524 4.1045 97.5522 4.31219 97.9965 4.59835C98.4408 4.8845 98.7926 5.25373 99.0517 5.70604C99.3202 6.14912 99.459 6.6845 99.4683 7.31219C99.4683 7.39527 99.4359 7.46912 99.3711 7.53373C99.3155 7.58912 99.2461 7.61681 99.1628 7.61681H96.3304C96.1823 7.61681 96.0712 7.58912 95.9972 7.53373C95.9324 7.46912 95.8722 7.36296 95.8167 7.21527C95.7149 6.91989 95.576 6.72142 95.4002 6.61989C95.2243 6.51835 95.016 6.46758 94.7754 6.46758C94.4699 6.46758 94.2246 6.55066 94.0395 6.71681C93.8636 6.87373 93.7664 7.1645 93.7479 7.58912C93.7202 8.34604 93.7202 9.12142 93.7479 9.9153C93.7664 10.3399 93.8636 10.6353 94.0395 10.8015C94.2246 10.9584 94.4699 11.0368 94.7754 11.0368C95.016 11.0368 95.2243 10.9815 95.4002 10.8707C95.5853 10.7599 95.7241 10.5661 95.8167 10.2891C95.863 10.1322 95.9231 10.026 95.9972 9.97066C96.0712 9.91527 96.1823 9.88761 96.3304 9.88761H99.1628C99.2461 9.88761 99.3155 9.91992 99.3711 9.9845C99.4359 10.0399 99.4683 10.1091 99.4683 10.1922C99.459 10.8199 99.3202 11.3599 99.0517 11.8122C98.7926 12.2553 98.4408 12.6199 97.9965 12.9061C97.5522 13.1922 97.0524 13.4045 96.497 13.543C95.9509 13.6722 95.3817 13.7368 94.7893 13.7368ZM100.945 13.5984C100.844 13.5984 100.756 13.5661 100.682 13.5015C100.608 13.4276 100.571 13.3353 100.571 13.2245V4.27989C100.571 4.17835 100.608 4.09066 100.682 4.01681C100.756 3.94296 100.844 3.90604 100.945 3.90604H103.667C103.769 3.90604 103.857 3.94296 103.931 4.01681C104.005 4.09066 104.042 4.17835 104.042 4.27989V7.18758H106.291V4.27989C106.291 4.17835 106.328 4.09066 106.402 4.01681C106.476 3.94296 106.564 3.90604 106.666 3.90604H109.387C109.489 3.90604 109.577 3.94296 109.651 4.01681C109.725 4.09066 109.762 4.17835 109.762 4.27989V13.2245C109.762 13.3261 109.725 13.4138 109.651 13.4876C109.577 13.5615 109.489 13.5984 109.387 13.5984H106.666C106.564 13.5984 106.476 13.5615 106.402 13.4876C106.328 13.4138 106.291 13.3261 106.291 13.2245V10.2337H104.042V13.2245C104.042 13.3261 104.005 13.4138 103.931 13.4876C103.857 13.5615 103.769 13.5984 103.667 13.5984H100.945ZM111.671 13.5984C111.569 13.5984 111.481 13.5615 111.407 13.4876C111.333 13.4138 111.296 13.3261 111.296 13.2245V4.27989C111.296 4.17835 111.333 4.09066 111.407 4.01681C111.481 3.94296 111.569 3.90604 111.671 3.90604H118.793C118.895 3.90604 118.983 3.94296 119.057 4.01681C119.131 4.09066 119.168 4.17835 119.168 4.27989V6.23222C119.168 6.33373 119.131 6.42142 119.057 6.49527C118.983 6.56915 118.895 6.60607 118.793 6.60607H114.628V7.47835H118.488C118.59 7.47835 118.677 7.51527 118.752 7.58912C118.826 7.66296 118.863 7.75066 118.863 7.85219V9.65219C118.863 9.75373 118.826 9.84142 118.752 9.9153C118.677 9.98912 118.59 10.026 118.488 10.026H114.628V10.8983H118.904C119.006 10.8983 119.094 10.9353 119.168 11.0091C119.242 11.083 119.279 11.1707 119.279 11.2722V13.2245C119.279 13.3261 119.242 13.4138 119.168 13.4876C119.094 13.5615 119.006 13.5984 118.904 13.5984H111.671ZM124.89 13.7368C124.001 13.7368 123.214 13.6076 122.53 13.3491C121.845 13.0907 121.298 12.6845 120.891 12.1307C120.493 11.5768 120.276 10.8614 120.239 9.9845C120.229 9.60604 120.225 9.19989 120.225 8.76607C120.225 8.33219 120.229 7.91681 120.239 7.51989C120.276 6.66145 120.498 5.9553 120.905 5.40142C121.322 4.84758 121.872 4.43681 122.557 4.16912C123.251 3.90142 124.029 3.76758 124.89 3.76758C125.482 3.76758 126.051 3.83681 126.598 3.97527C127.153 4.1045 127.653 4.31219 128.097 4.59835C128.541 4.8845 128.893 5.25373 129.152 5.70604C129.421 6.14912 129.56 6.6845 129.569 7.31219C129.569 7.39527 129.536 7.46912 129.472 7.53373C129.416 7.58912 129.347 7.61681 129.263 7.61681H126.431C126.283 7.61681 126.172 7.58912 126.098 7.53373C126.033 7.46912 125.973 7.36296 125.917 7.21527C125.815 6.91989 125.677 6.72142 125.501 6.61989C125.325 6.51835 125.117 6.46758 124.876 6.46758C124.57 6.46758 124.325 6.55066 124.14 6.71681C123.964 6.87373 123.867 7.1645 123.849 7.58912C123.821 8.34604 123.821 9.12142 123.849 9.9153C123.867 10.3399 123.964 10.6353 124.14 10.8015C124.325 10.9584 124.57 11.0368 124.876 11.0368C125.117 11.0368 125.325 10.9815 125.501 10.8707C125.686 10.7599 125.825 10.5661 125.917 10.2891C125.964 10.1322 126.024 10.026 126.098 9.97066C126.172 9.91527 126.283 9.88761 126.431 9.88761H129.263C129.347 9.88761 129.416 9.91992 129.472 9.9845C129.536 10.0399 129.569 10.1091 129.569 10.1922C129.56 10.8199 129.421 11.3599 129.152 11.8122C128.893 12.2553 128.541 12.6199 128.097 12.9061C127.653 13.1922 127.153 13.4045 126.598 13.543C126.051 13.6722 125.482 13.7368 124.89 13.7368ZM131.046 13.5984C130.944 13.5984 130.856 13.5615 130.782 13.4876C130.708 13.4138 130.671 13.3261 130.671 13.2245V4.27989C130.671 4.17835 130.708 4.09066 130.782 4.01681C130.856 3.94296 130.944 3.90604 131.046 3.90604H133.698C133.8 3.90604 133.888 3.94296 133.962 4.01681C134.036 4.09066 134.073 4.17835 134.073 4.27989V7.02142L135.642 4.21066C135.688 4.13681 135.753 4.06758 135.836 4.00296C135.929 3.93835 136.049 3.90604 136.197 3.90604H139.266C139.349 3.90604 139.418 3.93835 139.474 4.00296C139.539 4.05835 139.571 4.12758 139.571 4.21066C139.571 4.26604 139.557 4.31681 139.529 4.36296L137.03 8.5445L139.765 13.1415C139.793 13.1784 139.807 13.2291 139.807 13.2938C139.807 13.3768 139.775 13.4507 139.71 13.5153C139.654 13.5707 139.585 13.5984 139.502 13.5984H136.336C136.151 13.5984 136.012 13.5568 135.919 13.4738C135.836 13.3815 135.785 13.3168 135.767 13.2799L134.073 10.2614V13.2245C134.073 13.3261 134.036 13.4138 133.962 13.4876C133.888 13.5615 133.8 13.5984 133.698 13.5984H131.046Z" fill="white"/>
<path d="M36.5874 27.4445V20.9829H37.3464L40.2529 25.866H39.8456L42.715 20.9829H43.474L43.4833 27.4445H42.5947L42.5854 22.3768H42.7983L40.2436 26.6599H39.8178L37.2446 22.3768H37.476V27.4445H36.5874ZM47.4533 27.4999C46.9596 27.4999 46.5214 27.3922 46.139 27.1768C45.7563 26.9614 45.454 26.666 45.2319 26.2906C45.0097 25.9091 44.8986 25.4783 44.8986 24.9983C44.8986 24.5122 45.0097 24.0814 45.2319 23.706C45.454 23.3306 45.7563 23.0383 46.139 22.8291C46.5214 22.6137 46.9596 22.506 47.4533 22.506C47.9407 22.506 48.3758 22.6137 48.7585 22.8291C49.1472 23.0383 49.4495 23.3306 49.6656 23.706C49.8877 24.0752 49.9988 24.506 49.9988 24.9983C49.9988 25.4845 49.8877 25.9152 49.6656 26.2906C49.4495 26.666 49.1472 26.9614 48.7585 27.1768C48.3758 27.3922 47.9407 27.4999 47.4533 27.4999ZM47.4533 26.7245C47.7681 26.7245 48.0486 26.6537 48.2957 26.5122C48.5485 26.3706 48.746 26.1706 48.8881 25.9122C49.0298 25.6475 49.1009 25.3429 49.1009 24.9983C49.1009 24.6475 49.0298 24.346 48.8881 24.0937C48.746 23.8352 48.5485 23.6352 48.2957 23.4937C48.0486 23.3522 47.7681 23.2814 47.4533 23.2814C47.1386 23.2814 46.8578 23.3522 46.611 23.4937C46.364 23.6352 46.1667 23.8352 46.0186 24.0937C45.8705 24.346 45.7965 24.6475 45.7965 24.9983C45.7965 25.3429 45.8705 25.6475 46.0186 25.9122C46.1667 26.1706 46.364 26.3706 46.611 26.5122C46.8578 26.6537 47.1386 26.7245 47.4533 26.7245ZM51.2819 27.4445V22.5521H52.1705V24.6291H54.9659V22.5521H55.8545V27.4445H54.9659V25.3952H52.1705V27.4445H51.2819ZM57.5822 27.4445V22.5521H58.4708V26.1152L61.4791 22.5521H62.2844V27.4445H61.3958V23.8814L58.3968 27.4445H57.5822ZM64.9811 27.4445V23.0968L65.2033 23.3276H63.1854V22.5521H67.6654V23.3276H65.6568L65.8694 23.0968V27.4445H64.9811ZM70.4582 27.4999C69.9644 27.4999 69.5262 27.3922 69.1438 27.1768C68.7611 26.9614 68.4588 26.666 68.2367 26.2906C68.0145 25.9091 67.9035 25.4783 67.9035 24.9983C67.9035 24.5122 68.0145 24.0814 68.2367 23.706C68.4588 23.3306 68.7611 23.0383 69.1438 22.8291C69.5262 22.6137 69.9644 22.506 70.4582 22.506C70.9456 22.506 71.3806 22.6137 71.7633 22.8291C72.1521 23.0383 72.4543 23.3306 72.6704 23.706C72.8926 24.0752 73.0036 24.506 73.0036 24.9983C73.0036 25.4845 72.8926 25.9152 72.6704 26.2906C72.4543 26.666 72.1521 26.9614 71.7633 27.1768C71.3806 27.3922 70.9456 27.4999 70.4582 27.4999ZM70.4582 26.7245C70.7729 26.7245 71.0535 26.6537 71.3005 26.5122C71.5533 26.3706 71.7509 26.1706 71.8929 25.9122C72.0346 25.6475 72.1058 25.3429 72.1058 24.9983C72.1058 24.6475 72.0346 24.346 71.8929 24.0937C71.7509 23.8352 71.5533 23.6352 71.3005 23.4937C71.0535 23.3522 70.7729 23.2814 70.4582 23.2814C70.1435 23.2814 69.8626 23.3522 69.6159 23.4937C69.3688 23.6352 69.1716 23.8352 69.0235 24.0937C68.8754 24.346 68.8013 24.6475 68.8013 24.9983C68.8013 25.3429 68.8754 25.6475 69.0235 25.9122C69.1716 26.1706 69.3688 26.3706 69.6159 26.5122C69.8626 26.6537 70.1435 26.7245 70.4582 26.7245ZM76.8878 27.4999C76.4805 27.4999 76.1071 27.4076 75.7678 27.2229C75.4345 27.0321 75.1661 26.7522 74.9625 26.3829C74.7649 26.0137 74.6663 25.5521 74.6663 24.9983C74.6663 24.4444 74.7617 23.9829 74.9532 23.6137C75.1505 23.2444 75.416 22.9675 75.7493 22.7829C76.0886 22.5983 76.4681 22.506 76.8878 22.506C77.3691 22.506 77.7949 22.6106 78.1651 22.8198C78.5354 23.0291 78.8284 23.3214 79.0445 23.6968C79.2602 24.066 79.3684 24.4998 79.3684 24.9983C79.3684 25.4968 79.2602 25.9337 79.0445 26.3091C78.8284 26.6845 78.5354 26.9768 78.1651 27.186C77.7949 27.3952 77.3691 27.4999 76.8878 27.4999ZM74.2868 29.2351V22.5521H75.1383V23.8721L75.0828 25.0076L75.1754 26.1429V29.2351H74.2868ZM76.8137 26.7245C77.1284 26.7245 77.409 26.6537 77.656 26.5122C77.9088 26.3706 78.1064 26.1706 78.2484 25.9122C78.3965 25.6475 78.4706 25.3429 78.4706 24.9983C78.4706 24.6475 78.3965 24.346 78.2484 24.0937C78.1064 23.8352 77.9088 23.6352 77.656 23.4937C77.409 23.3522 77.1284 23.2814 76.8137 23.2814C76.5051 23.2814 76.2242 23.3522 75.9714 23.4937C75.7244 23.6352 75.5271 23.8352 75.379 24.0937C75.237 24.346 75.1661 24.6475 75.1661 24.9983C75.1661 25.3429 75.237 25.6475 75.379 25.9122C75.5271 26.1706 75.7244 26.3706 75.9714 26.5122C76.2242 26.6537 76.5051 26.7245 76.8137 26.7245ZM80.6594 27.4445V22.5521H81.548V26.1152L84.5562 22.5521H85.3615V27.4445H84.4729V23.8814L81.4739 27.4445H80.6594ZM87.0864 27.4445V22.5521H87.975V24.6291H90.7703V22.5521H91.6589V27.4445H90.7703V25.3952H87.975V27.4445H87.0864ZM93.3867 27.4445V22.5521H96.9966V23.3276H94.0624L94.2752 23.1244V27.4445H93.3867ZM100.392 27.4445V22.5521H101.281V26.6691H103.965V22.5521H104.854V27.4445H100.392ZM104.789 28.5799V27.3983L105.011 27.4445H103.965V26.6691H105.631V28.5799H104.789ZM108.967 27.4999C108.443 27.4999 107.98 27.3922 107.579 27.1768C107.184 26.9614 106.876 26.666 106.653 26.2906C106.437 25.9152 106.329 25.4845 106.329 24.9983C106.329 24.5122 106.434 24.0814 106.644 23.706C106.86 23.3306 107.153 23.0383 107.523 22.8291C107.9 22.6137 108.322 22.506 108.792 22.506C109.267 22.506 109.686 22.6106 110.05 22.8198C110.414 23.0291 110.698 23.3245 110.902 23.706C111.112 24.0814 111.217 24.5214 111.217 25.026C111.217 25.0629 111.214 25.106 111.207 25.1552C111.207 25.2045 111.204 25.2506 111.198 25.2937H107.024V24.6568H110.735L110.374 24.8783C110.38 24.5644 110.316 24.2845 110.18 24.0383C110.044 23.7921 109.856 23.6014 109.615 23.466C109.381 23.3245 109.106 23.2537 108.792 23.2537C108.483 23.2537 108.208 23.3245 107.968 23.466C107.727 23.6014 107.539 23.7952 107.403 24.0475C107.267 24.2937 107.2 24.5768 107.2 24.8968V25.0444C107.2 25.3706 107.274 25.6629 107.422 25.9214C107.576 26.1737 107.789 26.3706 108.06 26.5122C108.332 26.6537 108.643 26.7245 108.995 26.7245C109.285 26.7245 109.547 26.6752 109.782 26.5768C110.023 26.4783 110.232 26.3306 110.411 26.1337L110.902 26.706C110.68 26.9645 110.402 27.1614 110.069 27.2968C109.742 27.4322 109.375 27.4999 108.967 27.4999ZM112.595 27.4445V22.5521H113.484V24.6291H116.279V22.5521H117.168V27.4445H116.279V25.3952H113.484V27.4445H112.595Z" fill="white"/>
<path d="M15.0819 29.7927L11.8225 26.5422L17.7145 20.6664L14.9566 17.916L9.06456 23.7918L6.05589 20.7914L11.9479 14.9156L9.18993 12.1652L3.29792 18.041L0.289253 15.0406L15.0819 0.288574L18.0906 3.28898L12.0732 9.28981L14.8312 12.0402L20.8485 6.03937L23.8572 9.03978L17.8399 15.0406L20.5978 17.791L26.6152 11.7901L29.8747 15.0406L15.0819 29.7927Z" fill="white" stroke="white"/>
</g>
<defs>
<clipPath id="clip0_57_133">
<rect width="140" height="30" fill="white"/>
</clipPath>
</defs>
</svg>
