<svg width="140" height="30" viewBox="0 0 140 30" fill="none" xmlns="http://www.w3.org/2000/svg">
<g clip-path="url(#clip0_4_16)">
<path d="M36.717 13.5982C36.6152 13.5982 36.5273 13.5613 36.4532 13.4874C36.3792 13.4136 36.3421 13.3259 36.3421 13.2243V4.2797C36.3421 4.17816 36.3792 4.09047 36.4532 4.01663C36.5273 3.94278 36.6152 3.90586 36.717 3.90586H40.924C41.7663 3.90586 42.4975 4.03047 43.1177 4.2797C43.7471 4.5197 44.2331 4.89355 44.5755 5.40124C44.9273 5.8997 45.1031 6.53201 45.1031 7.29816C45.1031 8.06432 44.9273 8.69201 44.5755 9.18127C44.2331 9.66124 43.7471 10.0166 43.1177 10.2474C42.4975 10.4689 41.7663 10.5797 40.924 10.5797H39.9521V13.2243C39.9521 13.3259 39.915 13.4136 39.841 13.4874C39.7669 13.5613 39.679 13.5982 39.5772 13.5982H36.717ZM39.8826 8.01816H40.8545C41.0026 8.01816 41.1461 7.96278 41.285 7.85201C41.4238 7.73201 41.4932 7.53816 41.4932 7.27047C41.4932 7.09509 41.4469 6.9197 41.3544 6.74432C41.2711 6.56893 41.1045 6.48127 40.8545 6.48127H39.8826V8.01816ZM46.5066 13.5982C46.4048 13.5982 46.3169 13.5613 46.2428 13.4874C46.1688 13.4136 46.1317 13.3259 46.1317 13.2243V4.2797C46.1317 4.17816 46.1688 4.09047 46.2428 4.01663C46.3169 3.94278 46.4048 3.90586 46.5066 3.90586H50.6164C51.9493 3.90586 52.9906 4.20586 53.7403 4.80586C54.4901 5.40586 54.865 6.2274 54.865 7.27047C54.865 7.88893 54.7215 8.42893 54.4345 8.8905C54.1569 9.34281 53.8005 9.7074 53.3655 9.98432L55.0732 13.1413C55.101 13.1967 55.1149 13.2474 55.1149 13.2936C55.1149 13.3767 55.0825 13.4505 55.0177 13.5151C54.9621 13.5705 54.8927 13.5982 54.8094 13.5982H51.9631C51.778 13.5982 51.6392 13.552 51.5466 13.4597C51.454 13.3674 51.3939 13.289 51.3661 13.2243L50.1721 10.5797H49.6028V13.2243C49.6028 13.3259 49.5658 13.4136 49.4917 13.4874C49.4177 13.5613 49.3298 13.5982 49.2279 13.5982H46.5066ZM49.6028 7.94893H50.6164C50.8293 7.94893 50.9866 7.8797 51.0884 7.74124C51.1995 7.59355 51.255 7.42739 51.255 7.24278C51.255 7.05816 51.2041 6.8874 51.1023 6.73047C51.0098 6.56435 50.8478 6.48127 50.6164 6.48127H49.6028V7.94893ZM56.5264 13.5982C56.4246 13.5982 56.3367 13.5613 56.2626 13.4874C56.1886 13.4136 56.1516 13.3259 56.1516 13.2243V4.2797C56.1516 4.17816 56.1886 4.09047 56.2626 4.01663C56.3367 3.94278 56.4246 3.90586 56.5264 3.90586H59.3588C59.4607 3.90586 59.5486 3.94278 59.6226 4.01663C59.6967 4.09047 59.7337 4.17816 59.7337 4.2797V13.2243C59.7337 13.3259 59.6967 13.4136 59.6226 13.4874C59.5486 13.5613 59.4607 13.5982 59.3588 13.5982H56.5264ZM65.6646 13.7367C64.776 13.7367 63.9893 13.6074 63.3043 13.349C62.6193 13.0905 62.0732 12.6843 61.666 12.1305C61.2679 11.5766 61.0504 10.8612 61.0134 9.98432C61.0041 9.60586 60.9995 9.1997 60.9995 8.76588C60.9995 8.33201 61.0041 7.91663 61.0134 7.5197C61.0504 6.66127 61.2726 5.95512 61.6798 5.40124C62.0964 4.8474 62.6471 4.43663 63.3321 4.16893C64.0263 3.90124 64.8038 3.7674 65.6646 3.7674C66.257 3.7674 66.8263 3.83663 67.3724 3.97509C67.9278 4.10432 68.4276 4.31201 68.8719 4.59816C69.3162 4.88432 69.6679 5.25355 69.9271 5.70586C70.1955 6.14893 70.3344 6.68432 70.3436 7.31201C70.3436 7.39509 70.3112 7.46893 70.2464 7.53355C70.1909 7.58893 70.1215 7.61663 70.0382 7.61663H67.2058C67.0577 7.61663 66.9466 7.58893 66.8726 7.53355C66.8078 7.46893 66.7476 7.36278 66.6921 7.21509C66.5902 6.9197 66.4514 6.72124 66.2755 6.6197C66.0997 6.51816 65.8914 6.46739 65.6507 6.46739C65.3453 6.46739 65.1 6.55047 64.9149 6.71663C64.739 6.87355 64.6418 7.16432 64.6233 7.58893C64.5955 8.34586 64.5955 9.12124 64.6233 9.91512C64.6418 10.3397 64.739 10.6351 64.9149 10.8013C65.1 10.9582 65.3453 11.0367 65.6507 11.0367C65.8914 11.0367 66.0997 10.9813 66.2755 10.8705C66.4607 10.7597 66.5995 10.5659 66.6921 10.2889C66.7383 10.132 66.7985 10.0259 66.8726 9.97047C66.9466 9.91509 67.0577 9.88742 67.2058 9.88742H70.0382C70.1215 9.88742 70.1909 9.91973 70.2464 9.98432C70.3112 10.0397 70.3436 10.1089 70.3436 10.192C70.3344 10.8197 70.1955 11.3597 69.9271 11.812C69.6679 12.2551 69.3162 12.6197 68.8719 12.9059C68.4276 13.192 67.9278 13.4043 67.3724 13.5428C66.8263 13.672 66.257 13.7367 65.6646 13.7367ZM71.8209 13.5982C71.7191 13.5982 71.6311 13.5613 71.5571 13.4874C71.483 13.4136 71.446 13.3259 71.446 13.2243V4.2797C71.446 4.17816 71.483 4.09047 71.5571 4.01663C71.6311 3.94278 71.7191 3.90586 71.8209 3.90586H78.9435C79.0453 3.90586 79.1333 3.94278 79.2073 4.01663C79.2814 4.09047 79.3184 4.17816 79.3184 4.2797V6.23204C79.3184 6.33355 79.2814 6.42124 79.2073 6.49509C79.1333 6.56896 79.0453 6.60589 78.9435 6.60589H74.7782V7.47816H78.6381C78.7399 7.47816 78.8278 7.51509 78.9019 7.58893C78.9759 7.66278 79.0129 7.75047 79.0129 7.85201V9.65201C79.0129 9.75355 78.9759 9.84124 78.9019 9.91512C78.8278 9.98893 78.7399 10.0259 78.6381 10.0259H74.7782V10.8982H79.0546C79.1564 10.8982 79.2443 10.9351 79.3184 11.009C79.3924 11.0828 79.4295 11.1705 79.4295 11.272V13.2243C79.4295 13.3259 79.3924 13.4136 79.3184 13.4874C79.2443 13.5613 79.1564 13.5982 79.0546 13.5982H71.8209ZM84.761 13.7367C83.7336 13.7367 82.8867 13.5982 82.2202 13.3213C81.5538 13.0443 81.0539 12.6797 80.7207 12.2274C80.3875 11.7751 80.2116 11.2951 80.1931 10.7874C80.1931 10.7043 80.2209 10.6351 80.2764 10.5797C80.3412 10.5151 80.4153 10.4828 80.4986 10.4828H83.1366C83.2847 10.4828 83.3957 10.5059 83.4698 10.552C83.5531 10.5889 83.641 10.6443 83.7336 10.7182C83.8262 10.7828 83.9187 10.8428 84.0113 10.8982C84.1131 10.9443 84.2242 10.9812 84.3445 11.009C84.4741 11.0274 84.6129 11.0367 84.761 11.0367C85.0757 11.0367 85.3257 11.0043 85.5108 10.9397C85.7052 10.8659 85.8024 10.769 85.8024 10.6489C85.8024 10.5382 85.7468 10.4459 85.6357 10.372C85.5339 10.2982 85.3534 10.2335 85.0943 10.1782C84.8351 10.1135 84.4741 10.0535 84.0113 9.99816C83.28 9.89663 82.646 9.72586 82.1091 9.48586C81.5723 9.24586 81.1557 8.91816 80.8595 8.50278C80.5726 8.07816 80.4291 7.56124 80.4291 6.95201C80.4291 6.32432 80.605 5.77047 80.9567 5.29047C81.3177 4.81047 81.8129 4.43663 82.4424 4.16893C83.081 3.90124 83.8215 3.7674 84.6638 3.7674C85.3581 3.7674 85.9736 3.8597 86.5105 4.04432C87.0473 4.2197 87.5009 4.45509 87.8711 4.75047C88.2414 5.03663 88.5237 5.34586 88.7181 5.67816C88.9124 6.01047 89.0143 6.32893 89.0235 6.63355C89.0235 6.71663 88.9911 6.79047 88.9263 6.85509C88.8708 6.91047 88.806 6.93816 88.7319 6.93816H85.9551C85.8255 6.93816 85.7191 6.9197 85.6357 6.88278C85.5617 6.84586 85.483 6.79047 85.3997 6.71663C85.3534 6.67047 85.2655 6.6197 85.1359 6.56432C85.0156 6.4997 84.8582 6.46739 84.6638 6.46739C84.4324 6.46739 84.2612 6.50432 84.1501 6.57816C84.0483 6.64278 83.9974 6.73512 83.9974 6.85509C83.9974 6.93816 84.0391 7.01663 84.1224 7.09047C84.2057 7.16432 84.3584 7.22893 84.5805 7.28432C84.8027 7.3397 85.122 7.39509 85.5386 7.45047C86.4642 7.56124 87.2047 7.74124 87.76 7.99047C88.3247 8.23047 88.7319 8.55355 88.9819 8.9597C89.241 9.36586 89.3706 9.86893 89.3706 10.4689C89.3706 11.1428 89.167 11.7243 88.7597 12.2136C88.3617 12.7028 87.8156 13.0813 87.1214 13.349C86.4272 13.6074 85.6404 13.7367 84.761 13.7367ZM94.7893 13.7367C93.9007 13.7367 93.1139 13.6074 92.4289 13.349C91.744 13.0905 91.1979 12.6843 90.7906 12.1305C90.3926 11.5766 90.175 10.8612 90.138 9.98432C90.1288 9.60586 90.1241 9.1997 90.1241 8.76588C90.1241 8.33201 90.1288 7.91663 90.138 7.5197C90.175 6.66127 90.3972 5.95512 90.8045 5.40124C91.221 4.8474 91.7717 4.43663 92.4567 4.16893C93.1509 3.90124 93.9284 3.7674 94.7893 3.7674C95.3817 3.7674 95.9509 3.83663 96.497 3.97509C97.0524 4.10432 97.5522 4.31201 97.9965 4.59816C98.4408 4.88432 98.7926 5.25355 99.0517 5.70586C99.3202 6.14893 99.459 6.68432 99.4683 7.31201C99.4683 7.39509 99.4359 7.46893 99.3711 7.53355C99.3155 7.58893 99.2461 7.61663 99.1628 7.61663H96.3304C96.1823 7.61663 96.0712 7.58893 95.9972 7.53355C95.9324 7.46893 95.8722 7.36278 95.8167 7.21509C95.7149 6.9197 95.576 6.72124 95.4002 6.6197C95.2243 6.51816 95.016 6.46739 94.7754 6.46739C94.4699 6.46739 94.2246 6.55047 94.0395 6.71663C93.8636 6.87355 93.7664 7.16432 93.7479 7.58893C93.7202 8.34586 93.7202 9.12124 93.7479 9.91512C93.7664 10.3397 93.8636 10.6351 94.0395 10.8013C94.2246 10.9582 94.4699 11.0367 94.7754 11.0367C95.016 11.0367 95.2243 10.9813 95.4002 10.8705C95.5853 10.7597 95.7241 10.5659 95.8167 10.2889C95.863 10.132 95.9231 10.0259 95.9972 9.97047C96.0712 9.91509 96.1823 9.88742 96.3304 9.88742H99.1628C99.2461 9.88742 99.3155 9.91973 99.3711 9.98432C99.4359 10.0397 99.4683 10.1089 99.4683 10.192C99.459 10.8197 99.3202 11.3597 99.0517 11.812C98.7926 12.2551 98.4408 12.6197 97.9965 12.9059C97.5522 13.192 97.0524 13.4043 96.497 13.5428C95.9509 13.672 95.3817 13.7367 94.7893 13.7367ZM100.945 13.5982C100.844 13.5982 100.756 13.5659 100.682 13.5013C100.608 13.4274 100.571 13.3351 100.571 13.2243V4.2797C100.571 4.17816 100.608 4.09047 100.682 4.01663C100.756 3.94278 100.844 3.90586 100.945 3.90586H103.667C103.769 3.90586 103.857 3.94278 103.931 4.01663C104.005 4.09047 104.042 4.17816 104.042 4.2797V7.1874H106.291V4.2797C106.291 4.17816 106.328 4.09047 106.402 4.01663C106.476 3.94278 106.564 3.90586 106.666 3.90586H109.387C109.489 3.90586 109.577 3.94278 109.651 4.01663C109.725 4.09047 109.762 4.17816 109.762 4.2797V13.2243C109.762 13.3259 109.725 13.4136 109.651 13.4874C109.577 13.5613 109.489 13.5982 109.387 13.5982H106.666C106.564 13.5982 106.476 13.5613 106.402 13.4874C106.328 13.4136 106.291 13.3259 106.291 13.2243V10.2335H104.042V13.2243C104.042 13.3259 104.005 13.4136 103.931 13.4874C103.857 13.5613 103.769 13.5982 103.667 13.5982H100.945ZM111.671 13.5982C111.569 13.5982 111.481 13.5613 111.407 13.4874C111.333 13.4136 111.296 13.3259 111.296 13.2243V4.2797C111.296 4.17816 111.333 4.09047 111.407 4.01663C111.481 3.94278 111.569 3.90586 111.671 3.90586H118.793C118.895 3.90586 118.983 3.94278 119.057 4.01663C119.131 4.09047 119.168 4.17816 119.168 4.2797V6.23204C119.168 6.33355 119.131 6.42124 119.057 6.49509C118.983 6.56896 118.895 6.60589 118.793 6.60589H114.628V7.47816H118.488C118.59 7.47816 118.677 7.51509 118.752 7.58893C118.826 7.66278 118.863 7.75047 118.863 7.85201V9.65201C118.863 9.75355 118.826 9.84124 118.752 9.91512C118.677 9.98893 118.59 10.0259 118.488 10.0259H114.628V10.8982H118.904C119.006 10.8982 119.094 10.9351 119.168 11.009C119.242 11.0828 119.279 11.1705 119.279 11.272V13.2243C119.279 13.3259 119.242 13.4136 119.168 13.4874C119.094 13.5613 119.006 13.5982 118.904 13.5982H111.671ZM124.89 13.7367C124.001 13.7367 123.214 13.6074 122.53 13.349C121.845 13.0905 121.298 12.6843 120.891 12.1305C120.493 11.5766 120.276 10.8612 120.239 9.98432C120.229 9.60586 120.225 9.1997 120.225 8.76588C120.225 8.33201 120.229 7.91663 120.239 7.5197C120.276 6.66127 120.498 5.95512 120.905 5.40124C121.322 4.8474 121.872 4.43663 122.557 4.16893C123.251 3.90124 124.029 3.7674 124.89 3.7674C125.482 3.7674 126.051 3.83663 126.598 3.97509C127.153 4.10432 127.653 4.31201 128.097 4.59816C128.541 4.88432 128.893 5.25355 129.152 5.70586C129.421 6.14893 129.56 6.68432 129.569 7.31201C129.569 7.39509 129.536 7.46893 129.472 7.53355C129.416 7.58893 129.347 7.61663 129.263 7.61663H126.431C126.283 7.61663 126.172 7.58893 126.098 7.53355C126.033 7.46893 125.973 7.36278 125.917 7.21509C125.815 6.9197 125.677 6.72124 125.501 6.6197C125.325 6.51816 125.117 6.46739 124.876 6.46739C124.57 6.46739 124.325 6.55047 124.14 6.71663C123.964 6.87355 123.867 7.16432 123.849 7.58893C123.821 8.34586 123.821 9.12124 123.849 9.91512C123.867 10.3397 123.964 10.6351 124.14 10.8013C124.325 10.9582 124.57 11.0367 124.876 11.0367C125.117 11.0367 125.325 10.9813 125.501 10.8705C125.686 10.7597 125.825 10.5659 125.917 10.2889C125.964 10.132 126.024 10.0259 126.098 9.97047C126.172 9.91509 126.283 9.88742 126.431 9.88742H129.263C129.347 9.88742 129.416 9.91973 129.472 9.98432C129.536 10.0397 129.569 10.1089 129.569 10.192C129.56 10.8197 129.421 11.3597 129.152 11.812C128.893 12.2551 128.541 12.6197 128.097 12.9059C127.653 13.192 127.153 13.4043 126.598 13.5428C126.051 13.672 125.482 13.7367 124.89 13.7367ZM131.046 13.5982C130.944 13.5982 130.856 13.5613 130.782 13.4874C130.708 13.4136 130.671 13.3259 130.671 13.2243V4.2797C130.671 4.17816 130.708 4.09047 130.782 4.01663C130.856 3.94278 130.944 3.90586 131.046 3.90586H133.698C133.8 3.90586 133.888 3.94278 133.962 4.01663C134.036 4.09047 134.073 4.17816 134.073 4.2797V7.02124L135.642 4.21047C135.688 4.13663 135.753 4.0674 135.836 4.00278C135.929 3.93816 136.049 3.90586 136.197 3.90586H139.266C139.349 3.90586 139.418 3.93816 139.474 4.00278C139.539 4.05816 139.571 4.1274 139.571 4.21047C139.571 4.26586 139.557 4.31663 139.529 4.36278L137.03 8.54432L139.765 13.1413C139.793 13.1782 139.807 13.229 139.807 13.2936C139.807 13.3767 139.775 13.4505 139.71 13.5151C139.654 13.5705 139.585 13.5982 139.502 13.5982H136.336C136.151 13.5982 136.012 13.5567 135.919 13.4736C135.836 13.3813 135.785 13.3167 135.767 13.2797L134.073 10.2612V13.2243C134.073 13.3259 134.036 13.4136 133.962 13.4874C133.888 13.5613 133.8 13.5982 133.698 13.5982H131.046Z" fill="#1C1C1C"/>
<path d="M36.5874 27.4443V20.9828H37.3464L40.2529 25.8659H39.8456L42.715 20.9828H43.474L43.4833 27.4443H42.5947L42.5854 22.3766H42.7983L40.2436 26.6597H39.8178L37.2446 22.3766H37.476V27.4443H36.5874ZM47.4533 27.4997C46.9596 27.4997 46.5214 27.392 46.139 27.1767C45.7563 26.9613 45.454 26.6659 45.2319 26.2905C45.0097 25.909 44.8986 25.4782 44.8986 24.9982C44.8986 24.512 45.0097 24.0813 45.2319 23.7059C45.454 23.3305 45.7563 23.0382 46.139 22.829C46.5214 22.6136 46.9596 22.5059 47.4533 22.5059C47.9407 22.5059 48.3758 22.6136 48.7585 22.829C49.1472 23.0382 49.4495 23.3305 49.6656 23.7059C49.8877 24.0751 49.9988 24.5059 49.9988 24.9982C49.9988 25.4843 49.8877 25.9151 49.6656 26.2905C49.4495 26.6659 49.1472 26.9613 48.7585 27.1767C48.3758 27.392 47.9407 27.4997 47.4533 27.4997ZM47.4533 26.7243C47.7681 26.7243 48.0486 26.6536 48.2957 26.512C48.5485 26.3705 48.746 26.1705 48.8881 25.912C49.0298 25.6474 49.1009 25.3428 49.1009 24.9982C49.1009 24.6474 49.0298 24.3459 48.8881 24.0936C48.746 23.8351 48.5485 23.6351 48.2957 23.4935C48.0486 23.352 47.7681 23.2812 47.4533 23.2812C47.1386 23.2812 46.8578 23.352 46.611 23.4935C46.364 23.6351 46.1667 23.8351 46.0186 24.0936C45.8705 24.3459 45.7965 24.6474 45.7965 24.9982C45.7965 25.3428 45.8705 25.6474 46.0186 25.912C46.1667 26.1705 46.364 26.3705 46.611 26.512C46.8578 26.6536 47.1386 26.7243 47.4533 26.7243ZM51.2819 27.4443V22.552H52.1705V24.629H54.9659V22.552H55.8545V27.4443H54.9659V25.3951H52.1705V27.4443H51.2819ZM57.5822 27.4443V22.552H58.4708V26.1151L61.4791 22.552H62.2844V27.4443H61.3958V23.8813L58.3968 27.4443H57.5822ZM64.9811 27.4443V23.0966L65.2033 23.3274H63.1854V22.552H67.6654V23.3274H65.6568L65.8694 23.0966V27.4443H64.9811ZM70.4582 27.4997C69.9644 27.4997 69.5262 27.392 69.1438 27.1767C68.7611 26.9613 68.4588 26.6659 68.2367 26.2905C68.0145 25.909 67.9035 25.4782 67.9035 24.9982C67.9035 24.512 68.0145 24.0813 68.2367 23.7059C68.4588 23.3305 68.7611 23.0382 69.1438 22.829C69.5262 22.6136 69.9644 22.5059 70.4582 22.5059C70.9456 22.5059 71.3806 22.6136 71.7633 22.829C72.1521 23.0382 72.4543 23.3305 72.6704 23.7059C72.8926 24.0751 73.0036 24.5059 73.0036 24.9982C73.0036 25.4843 72.8926 25.9151 72.6704 26.2905C72.4543 26.6659 72.1521 26.9613 71.7633 27.1767C71.3806 27.392 70.9456 27.4997 70.4582 27.4997ZM70.4582 26.7243C70.7729 26.7243 71.0535 26.6536 71.3005 26.512C71.5533 26.3705 71.7509 26.1705 71.8929 25.912C72.0346 25.6474 72.1058 25.3428 72.1058 24.9982C72.1058 24.6474 72.0346 24.3459 71.8929 24.0936C71.7509 23.8351 71.5533 23.6351 71.3005 23.4935C71.0535 23.352 70.7729 23.2812 70.4582 23.2812C70.1435 23.2812 69.8626 23.352 69.6159 23.4935C69.3688 23.6351 69.1716 23.8351 69.0235 24.0936C68.8754 24.3459 68.8013 24.6474 68.8013 24.9982C68.8013 25.3428 68.8754 25.6474 69.0235 25.912C69.1716 26.1705 69.3688 26.3705 69.6159 26.512C69.8626 26.6536 70.1435 26.7243 70.4582 26.7243ZM76.8878 27.4997C76.4805 27.4997 76.1071 27.4074 75.7678 27.2228C75.4345 27.032 75.1661 26.752 74.9625 26.3828C74.7649 26.0136 74.6663 25.552 74.6663 24.9982C74.6663 24.4443 74.7617 23.9828 74.9532 23.6135C75.1505 23.2443 75.416 22.9674 75.7493 22.7828C76.0886 22.5982 76.4681 22.5059 76.8878 22.5059C77.3691 22.5059 77.7949 22.6105 78.1651 22.8197C78.5354 23.029 78.8284 23.3213 79.0445 23.6966C79.2602 24.0659 79.3684 24.4997 79.3684 24.9982C79.3684 25.4966 79.2602 25.9336 79.0445 26.309C78.8284 26.6843 78.5354 26.9766 78.1651 27.1859C77.7949 27.3951 77.3691 27.4997 76.8878 27.4997ZM74.2868 29.235V22.552H75.1383V23.872L75.0828 25.0074L75.1754 26.1428V29.235H74.2868ZM76.8137 26.7243C77.1284 26.7243 77.409 26.6536 77.656 26.512C77.9088 26.3705 78.1064 26.1705 78.2484 25.912C78.3965 25.6474 78.4706 25.3428 78.4706 24.9982C78.4706 24.6474 78.3965 24.3459 78.2484 24.0936C78.1064 23.8351 77.9088 23.6351 77.656 23.4935C77.409 23.352 77.1284 23.2812 76.8137 23.2812C76.5051 23.2812 76.2242 23.352 75.9714 23.4935C75.7244 23.6351 75.5271 23.8351 75.379 24.0936C75.237 24.3459 75.1661 24.6474 75.1661 24.9982C75.1661 25.3428 75.237 25.6474 75.379 25.912C75.5271 26.1705 75.7244 26.3705 75.9714 26.512C76.2242 26.6536 76.5051 26.7243 76.8137 26.7243ZM80.6594 27.4443V22.552H81.548V26.1151L84.5562 22.552H85.3615V27.4443H84.4729V23.8813L81.4739 27.4443H80.6594ZM87.0864 27.4443V22.552H87.975V24.629H90.7703V22.552H91.6589V27.4443H90.7703V25.3951H87.975V27.4443H87.0864ZM93.3867 27.4443V22.552H96.9966V23.3274H94.0624L94.2752 23.1243V27.4443H93.3867ZM100.392 27.4443V22.552H101.281V26.669H103.965V22.552H104.854V27.4443H100.392ZM104.789 28.5797V27.3982L105.011 27.4443H103.965V26.669H105.631V28.5797H104.789ZM108.967 27.4997C108.443 27.4997 107.98 27.392 107.579 27.1767C107.184 26.9613 106.876 26.6659 106.653 26.2905C106.437 25.9151 106.329 25.4843 106.329 24.9982C106.329 24.512 106.434 24.0813 106.644 23.7059C106.86 23.3305 107.153 23.0382 107.523 22.829C107.9 22.6136 108.322 22.5059 108.792 22.5059C109.267 22.5059 109.686 22.6105 110.05 22.8197C110.414 23.029 110.698 23.3243 110.902 23.7059C111.112 24.0813 111.217 24.5213 111.217 25.0259C111.217 25.0628 111.214 25.1059 111.207 25.1551C111.207 25.2043 111.204 25.2505 111.198 25.2936H107.024V24.6566H110.735L110.374 24.8782C110.38 24.5643 110.316 24.2843 110.18 24.0382C110.044 23.792 109.856 23.6013 109.615 23.4659C109.381 23.3243 109.106 23.2535 108.792 23.2535C108.483 23.2535 108.208 23.3243 107.968 23.4659C107.727 23.6013 107.539 23.7951 107.403 24.0474C107.267 24.2936 107.2 24.5766 107.2 24.8966V25.0443C107.2 25.3705 107.274 25.6628 107.422 25.9213C107.576 26.1736 107.789 26.3705 108.06 26.512C108.332 26.6536 108.643 26.7243 108.995 26.7243C109.285 26.7243 109.547 26.6751 109.782 26.5767C110.023 26.4782 110.232 26.3305 110.411 26.1336L110.902 26.7059C110.68 26.9643 110.402 27.1613 110.069 27.2967C109.742 27.432 109.375 27.4997 108.967 27.4997ZM112.595 27.4443V22.552H113.484V24.629H116.279V22.552H117.168V27.4443H116.279V25.3951H113.484V27.4443H112.595Z" fill="#1C1C1C"/>
<path d="M15.0819 29.7926L11.8225 26.5421L17.7145 20.6662L14.9566 17.9159L9.06456 23.7917L6.05589 20.7913L11.9479 14.9155L9.18993 12.1651L3.29792 18.0409L0.289253 15.0405L15.0819 0.28846L18.0906 3.28886L12.0732 9.2897L14.8312 12.0401L20.8485 6.03926L23.8572 9.03966L17.8399 15.0405L20.5978 17.7909L26.6152 11.79L29.8747 15.0405L15.0819 29.7926Z" fill="#1C1C1C" stroke="#1C1C1C"/>
</g>
<defs>
<clipPath id="clip0_4_16">
<rect width="140" height="30" fill="white"/>
</clipPath>
</defs>
</svg>
